<svg height="65.566" viewBox="0 0 269.289 65.566" width="269.289" xmlns="http://www.w3.org/2000/svg" xmlns:xlink="http://www.w3.org/1999/xlink">
<defs>
<clipPath id="clip-path">
<path d="M0,7.61H269.289V-57.956H0Z" data-name="Tracé 2175" fill="none" id="Tracé_2175" transform="translate(0 57.956)"></path>
</clipPath>
</defs>
<g id="white-rgb" transform="translate(-0.445 2.813)">
<g data-name="Groupe 2574" id="Groupe_2574" transform="translate(0.445 48.143)">
<g clip-path="url(#clip-path)" data-name="Groupe 1756" id="Groupe_1756" transform="translate(0 -50.956)">
<g data-name="Groupe 1749" id="Groupe_1749" transform="translate(8.385 11.026)">
<path d="M.605,3.493c-15.44-19.68,6.64-37.6,24.081-26.88C8.125-26.908-4.275-14.427.605,3.493" data-name="Tracé 2168" fill="#fff" id="Tracé_2168" transform="translate(4.611 26.601)"></path>
</g>
<g data-name="Groupe 1750" id="Groupe_1750" transform="translate(34.803 9.891)">
<path d="M0,0c22.72-.96,30,21.84,18.24,28.16C21.84,14.883,16.959,3.764,0,0" data-name="Tracé 2169" fill="#fff" id="Tracé_2169" transform="translate(0 0.026)"></path>
</g>
<g data-name="Groupe 1751" id="Groupe_1751" transform="translate(16.055 32.561)">
<path d="M4.581.8C-.779,30-37.1,19.279-34.781-6.081-26.46,13.759-2.38,15.12,4.581.8" data-name="Tracé 2170" fill="#fff" id="Tracé_2170" transform="translate(34.887 6.081)"></path>
</g>
<g data-name="Groupe 1752" id="Groupe_1752" transform="translate(31.122 0)">
<path d="M0,.492l4.72-4.24c14.56,2.16,21.12,11.52,26.321,22.24C24.081,6.892,14.24.092,0,.492" data-name="Tracé 2171" fill="#fff" id="Tracé_2171" transform="translate(0 3.748)"></path>
</g>
<g data-name="Groupe 1753" id="Groupe_1753" transform="translate(29.922 41.68)">
<path d="M3.7,0l3.36,7.12c-10.4,17.44-24.559,18-35.2,15.921C-17.264,24.16-2.865,20.641,3.7,0" data-name="Tracé 2172" fill="#fff" id="Tracé_2172" transform="translate(28.145)"></path>
</g>
<g data-name="Groupe 1754" id="Groupe_1754" transform="translate(0 11.76)">
<path d="M1.328,0c-11.361,9.761-14.719,23.6-8,41.761l11.12,2.88C-5.072,31.921-12.752,14.721,1.328,0" data-name="Tracé 2173" fill="#fff" id="Tracé_2173" transform="translate(10.113)"></path>
</g>
<g data-name="Groupe 1755" id="Groupe_1755" transform="translate(76.643 14.8)">
<path d="M17.5,4.114V-.448a3.434,3.434,0,0,0,2.481-1.12A4.241,4.241,0,0,0,21.1-4.527v-6.881a37.756,37.756,0,0,1-3.6,1.76v-3.841a6.088,6.088,0,0,0,2.721-1.439,2.959,2.959,0,0,0,.879-2.161,2.867,2.867,0,0,0-1.28-2.48,4.061,4.061,0,0,0-2.32-.88v-3.92a13.513,13.513,0,0,1,1.76-.08c3.2,0,5.68.56,7.361,1.76a5.857,5.857,0,0,1,2.479,5.12V-2.287q0,1.921,1.44,1.92a2.692,2.692,0,0,0,1.6-.8V2.913a12.11,12.11,0,0,1-2.72,1.36,7.466,7.466,0,0,1-2.56.4,6.238,6.238,0,0,1-3.28-.721,6.409,6.409,0,0,1-2.16-2.561,14.052,14.052,0,0,1-2.56,2.161c-.4.16-.881.4-1.361.561M42.545-9.328l-7.04-12.8a7.839,7.839,0,0,0-1.041-1.6h9.6a4.691,4.691,0,0,0,.64,1.6l4,7.04,4.559-7.04a4.272,4.272,0,0,0,.721-1.6H58.7a9.377,9.377,0,0,0-1.281,1.6L50.7-11.247l7.52,13.76a14,14,0,0,0,1.12,1.6H49.584a3.18,3.18,0,0,0-.56-1.6l-4.48-8.161-5.2,8.161a5.959,5.959,0,0,0-.8,1.6H33.9a11.631,11.631,0,0,0,1.2-1.6ZM17.5-24.368v3.92a2.71,2.71,0,0,0-.8-.08,8.313,8.313,0,0,0-3.281.56,16.9,16.9,0,0,0-3.519,2l-.959-4.481a28.048,28.048,0,0,1,8.559-1.92m0,10.88v3.841l-.08.08a5.9,5.9,0,0,0-2.48,2.159,5.773,5.773,0,0,0-.96,3.2,4.1,4.1,0,0,0,.881,2.72,2.829,2.829,0,0,0,2.4,1.04h.24V4.114a12.051,12.051,0,0,1-3.521.56,7.068,7.068,0,0,1-5.2-1.921,8.78,8.78,0,0,1-2.32-6.319,7.778,7.778,0,0,1,2.961-6.56,10.557,10.557,0,0,1,2.72-1.6c.96-.4,2.721-.959,5.36-1.76M-96.58,4.114V-.448a3.4,3.4,0,0,0,2.4-1.12A4.246,4.246,0,0,0-93.06-4.527v-6.881c-.479.32-1.679.88-3.519,1.76v-3.841a6.576,6.576,0,0,0,2.721-1.439,3.253,3.253,0,0,0,.8-2.161,3,3,0,0,0-1.2-2.48,4.561,4.561,0,0,0-2.32-.88v-3.92a11.768,11.768,0,0,1,1.68-.08c3.2,0,5.68.56,7.36,1.76a5.918,5.918,0,0,1,2.56,5.12V-2.287c0,1.281.4,1.92,1.36,1.92a2.686,2.686,0,0,0,1.6-.8V2.913a11.86,11.86,0,0,1-2.639,1.36,8.335,8.335,0,0,1-2.64.4,6.434,6.434,0,0,1-3.28-.721,8.007,8.007,0,0,1-2.16-2.561A11.8,11.8,0,0,1-95.3,3.552c-.4.16-.8.4-1.281.561M-27.7-20.928a9.448,9.448,0,0,1,7.6-3.521,7.96,7.96,0,0,1,7.12,3.521,14.915,14.915,0,0,1,3.841-2.72,11.039,11.039,0,0,1,4.4-.8,7.769,7.769,0,0,1,5.759,2,7.505,7.505,0,0,1,2,5.521V2.432a5.376,5.376,0,0,0,.239,1.681h-8.64a3.7,3.7,0,0,0,.32-1.681v-17.68a3.908,3.908,0,0,0-.8-2.8,3.094,3.094,0,0,0-2.48-.88,3.639,3.639,0,0,0-2.88,1.04,3.564,3.564,0,0,0-1.04,2.8V2.432a5.344,5.344,0,0,0,.239,1.681h-8.64a3.719,3.719,0,0,0,.32-1.681v-17.76a3.815,3.815,0,0,0-.8-2.72,3.208,3.208,0,0,0-2.48-.88,3.682,3.682,0,0,0-2.8,1.04,3.5,3.5,0,0,0-1.041,2.721v17.6a5.342,5.342,0,0,0,.24,1.681h-8.64a3.7,3.7,0,0,0,.319-1.681v-24.48a3.3,3.3,0,0,0-.319-1.68H-27.7Zm-17.842-10.4c2.88,0,4.32.88,4.32,2.8s-1.44,2.959-4.24,2.959c-2.961,0-4.4-.959-4.4-2.879a2.454,2.454,0,0,1,1.12-2.161,6.121,6.121,0,0,1,3.2-.72m-4.239,7.6h8.559a4.659,4.659,0,0,0-.24,1.68V2.432a5.309,5.309,0,0,0,.24,1.681h-8.559a5.344,5.344,0,0,0,.239-1.681v-24.48a4.688,4.688,0,0,0-.239-1.68m-29.361,0h8.08v3.12a8.338,8.338,0,0,1,2.639-2.48,10.764,10.764,0,0,1,5.44-1.361c2.88,0,5.12.88,6.641,2.721a7.819,7.819,0,0,1,1.519,5.12V2.432a6.081,6.081,0,0,0,.241,1.681h-8.641a4.489,4.489,0,0,0,.32-1.681V-15.088q0-3.84-3.6-3.84a4.051,4.051,0,0,0-3.2,1.28,4.935,4.935,0,0,0-1.121,3.44V2.432a5.308,5.308,0,0,0,.241,1.681h-8.559A5.344,5.344,0,0,0-78.9,2.432v-24.48a4.688,4.688,0,0,0-.239-1.68M-133.3,1.952l1.44-5.519c1.04.879,1.92,1.519,2.56,2a10.238,10.238,0,0,0,5.92,1.92A6.122,6.122,0,0,0-119.3-1.007a4.61,4.61,0,0,0,1.44-3.361,4.091,4.091,0,0,0-2-3.68,31.287,31.287,0,0,0-5.04-2.48c-3.041-1.28-5.12-2.72-6.241-4.24a8.936,8.936,0,0,1-1.92-5.761,10.012,10.012,0,0,1,1.68-5.6c2.161-3.2,5.841-4.879,10.881-4.879a22.7,22.7,0,0,1,8.96,2l-1.279,5.119c-2.88-2.079-5.44-3.2-7.68-3.2a4.54,4.54,0,0,0-3.2,1.2,3.8,3.8,0,0,0-1.36,2.879,3.464,3.464,0,0,0,1.279,2.8,25.575,25.575,0,0,0,5.681,2.961c3.2,1.28,5.359,2.8,6.48,4.4a10.014,10.014,0,0,1,1.839,5.921,11.209,11.209,0,0,1-1.68,6.08c-2.16,3.68-6,5.521-11.361,5.521a21.057,21.057,0,0,1-5.2-.64A30.864,30.864,0,0,1-133.3,1.952m36.721-26.32v3.92a3.266,3.266,0,0,0-.88-.08,8.567,8.567,0,0,0-3.28.56,16.643,16.643,0,0,0-3.44,2l-1.04-4.481a28.524,28.524,0,0,1,8.64-1.92m0,10.88v3.841l-.16.08A5.9,5.9,0,0,0-99.22-7.409a5.7,5.7,0,0,0-.88,3.2,3.73,3.73,0,0,0,.88,2.72A2.779,2.779,0,0,0-96.9-.448h.319V4.114a13.078,13.078,0,0,1-3.6.56,6.756,6.756,0,0,1-5.12-1.921,8.454,8.454,0,0,1-2.32-6.319,7.944,7.944,0,0,1,2.88-6.56,12.066,12.066,0,0,1,2.72-1.6c.96-.4,2.8-.959,5.44-1.76" data-name="Tracé 2174" fill="#fff" id="Tracé_2174" transform="translate(133.301 31.328)"></path>
</g>
</g>
</g>
</g>
</svg>