<svg id="svg" version="1.1" xmlns="http://www.w3.org/2000/svg" xmlns:xlink="http://www.w3.org/1999/xlink" width="400" height="400" viewBox="0, 0, 400,400"><g id="svgg"><path id="path0" d="M210.153 48.502 C 209.278 49.299,205.940 52.313,204.986 53.168 C 204.601 53.512,202.672 55.247,200.698 57.023 C 198.724 58.798,195.432 61.747,193.383 63.575 C 191.335 65.404,189.652 66.980,189.645 67.079 C 189.637 67.183,190.701 67.203,192.173 67.126 C 197.081 66.872,208.726 67.452,215.753 68.301 C 228.951 69.896,243.129 73.647,254.337 78.510 C 255.324 78.939,256.535 79.458,257.029 79.665 C 263.162 82.234,277.522 90.612,281.833 94.136 C 281.954 94.235,283.400 95.351,285.045 96.615 C 297.355 106.073,309.900 119.364,320.046 133.699 C 322.789 137.574,325.214 141.244,327.816 145.455 C 328.694 146.875,329.412 147.969,329.412 147.885 C 329.412 147.730,324.509 138.066,323.328 135.892 C 322.970 135.234,322.050 133.529,321.282 132.104 C 313.842 118.277,303.966 103.437,296.408 94.728 C 289.768 87.077,284.400 81.778,277.547 76.110 C 260.941 62.378,238.095 52.309,215.055 48.568 C 213.300 48.283,211.640 48.005,211.366 47.951 C 210.997 47.878,210.681 48.022,210.153 48.502 M164.296 97.511 C 124.559 99.638,91.032 128.535,87.260 163.908 C 84.839 186.616,91.604 208.326,108.034 230.568 C 109.070 231.971,109.951 233.086,109.992 233.046 C 110.032 233.006,109.801 231.947,109.479 230.694 C 102.688 204.282,104.225 178.686,113.845 157.982 C 122.556 139.234,137.141 125.045,156.132 116.843 C 173.967 109.140,195.889 107.172,216.925 111.385 C 218.934 111.787,218.891 111.706,216.310 110.214 C 200.462 101.059,182.045 96.561,164.296 97.511 M98.804 102.523 C 68.805 129.165,52.473 160.600,49.354 197.707 C 49.074 201.039,48.990 202.556,48.751 208.574 C 48.650 211.120,48.908 220.680,49.145 223.131 C 49.192 223.624,49.327 225.194,49.445 226.620 C 49.692 229.619,49.726 229.934,50.261 234.197 C 51.878 247.097,55.401 262.950,59.448 275.546 C 60.734 279.549,63.079 286.499,63.631 287.946 L 64.205 289.450 66.250 289.970 C 69.299 290.744,80.574 293.622,84.447 294.616 C 86.311 295.094,91.381 296.389,95.713 297.494 C 110.032 301.148,113.755 302.102,114.114 302.214 C 114.323 302.279,113.732 301.313,112.676 299.866 C 99.452 281.737,89.717 265.694,82.207 249.651 C 74.255 232.666,69.150 216.289,66.916 200.598 C 66.527 197.869,66.542 198.009,65.896 191.027 C 65.525 187.014,65.624 178.895,66.120 172.682 C 68.058 148.404,79.053 124.604,97.833 104.038 C 99.310 102.420,100.491 101.099,100.459 101.101 C 100.426 101.104,99.681 101.743,98.804 102.523 M326.627 239.731 C 324.402 246.261,321.646 253.336,319.345 258.425 C 318.973 259.247,318.402 260.510,318.077 261.230 C 314.792 268.500,309.314 278.278,304.782 284.960 C 302.652 288.101,302.360 288.510,299.867 291.840 C 290.369 304.526,278.433 315.429,265.385 323.341 C 264.401 323.938,263.563 324.427,263.523 324.427 C 263.483 324.427,262.872 324.778,262.166 325.207 C 243.879 336.317,215.092 342.326,189.370 340.403 C 187.417 340.256,185.782 340.173,185.738 340.218 C 185.651 340.304,190.709 341.177,194.852 341.791 C 228.106 346.719,259.451 342.014,283.549 328.477 C 283.933 328.261,284.875 327.738,285.643 327.315 C 302.620 317.946,320.022 301.569,333.629 282.154 C 336.956 277.405,342.772 268.262,342.772 267.778 C 342.772 267.534,340.206 262.023,335.370 251.878 C 334.725 250.526,334.197 249.388,334.197 249.349 C 334.197 249.311,333.584 247.994,332.835 246.424 C 332.086 244.854,330.683 241.887,329.718 239.831 C 328.753 237.774,327.942 236.092,327.915 236.092 C 327.888 236.092,327.309 237.729,326.627 239.731 " stroke="none" fill="#1c3c72" fill-rule="evenodd"></path><path id="path1" d="M0.000 200.000 L 0.000 400.000 200.000 400.000 L 400.000 400.000 400.000 200.000 L 400.000 0.000 200.000 0.000 L 0.000 0.000 0.000 200.000 M215.016 48.450 C 216.902 48.776,219.252 49.218,220.239 49.432 C 221.226 49.646,222.929 50.016,224.023 50.255 C 242.153 54.214,261.326 63.191,275.474 74.345 C 276.461 75.123,277.358 75.830,277.468 75.916 C 290.990 86.483,304.917 103.591,317.444 125.025 C 319.568 128.660,319.530 128.593,320.338 130.110 C 322.481 134.134,322.903 134.912,323.041 135.095 C 323.557 135.781,329.626 148.006,329.505 148.118 C 329.424 148.193,329.324 148.166,329.285 148.056 C 329.051 147.414,323.535 138.900,320.823 134.995 C 318.323 131.395,312.697 124.003,311.168 122.310 C 310.906 122.020,310.472 121.504,308.718 119.399 C 304.272 114.063,295.872 105.608,291.229 101.795 C 290.695 101.356,289.848 100.644,289.346 100.213 C 287.541 98.661,282.809 94.969,280.758 93.512 C 278.807 92.127,272.844 88.136,272.725 88.136 C 272.696 88.136,271.239 87.279,269.487 86.233 C 260.278 80.733,247.358 75.328,236.690 72.511 C 231.801 71.221,231.125 71.064,226.321 70.115 C 216.248 68.126,206.218 67.199,194.766 67.199 C 190.129 67.198,188.783 67.086,189.602 66.766 C 189.756 66.707,191.827 64.888,193.199 63.609 C 193.494 63.335,194.439 62.483,195.301 61.715 C 196.163 60.947,196.968 60.229,197.090 60.120 C 197.212 60.010,197.715 59.570,198.208 59.142 C 198.700 58.715,199.734 57.772,200.506 57.049 C 201.277 56.325,202.523 55.194,203.274 54.536 C 204.025 53.878,205.996 52.111,207.654 50.609 C 209.635 48.814,210.825 47.874,211.127 47.867 C 211.380 47.861,213.130 48.123,215.016 48.450 M219.043 92.525 C 254.613 94.404,284.253 110.019,300.983 135.693 C 301.626 136.680,302.319 137.731,302.522 138.028 C 302.725 138.325,302.891 138.605,302.891 138.650 C 302.891 138.696,303.390 139.614,304.000 140.691 C 306.951 145.901,308.965 150.800,311.085 157.926 C 316.808 177.162,312.305 198.302,299.804 210.882 C 296.367 214.341,288.834 219.874,288.143 219.446 C 288.078 219.406,288.499 217.459,289.080 215.120 C 298.449 177.376,291.660 146.158,269.238 123.883 C 257.008 111.732,240.669 102.669,219.143 96.095 C 216.885 95.406,216.440 95.287,209.987 93.657 C 207.639 93.063,205.844 92.527,205.999 92.466 C 206.480 92.276,215.059 92.315,219.043 92.525 M179.063 97.801 C 192.459 99.406,203.870 103.157,216.052 109.961 C 219.693 111.995,219.755 112.073,217.328 111.560 C 193.743 106.576,167.015 110.077,148.754 120.542 C 148.041 120.951,147.144 121.463,146.760 121.680 C 139.227 125.940,131.362 132.696,124.770 140.567 C 106.483 162.405,100.643 196.963,109.556 230.605 C 110.243 233.197,110.287 233.747,109.751 233.001 C 109.593 232.782,109.354 232.464,109.219 232.295 C 100.070 220.845,92.489 205.876,89.126 192.622 C 86.855 183.670,85.931 171.664,87.022 165.304 C 87.069 165.030,87.210 163.998,87.334 163.011 C 91.771 127.741,123.022 100.834,163.509 97.426 C 165.754 97.237,176.519 97.497,179.063 97.801 M99.143 102.732 C 83.513 119.184,72.687 138.994,68.322 159.128 C 66.474 167.649,65.760 174.402,65.760 183.350 C 65.761 187.310,65.876 190.282,66.104 192.223 C 66.149 192.607,66.237 193.639,66.299 194.516 C 68.347 223.348,85.247 262.400,110.568 296.810 C 110.810 297.139,111.791 298.470,112.748 299.768 C 113.705 301.066,114.444 302.173,114.389 302.228 C 114.335 302.282,112.824 301.951,111.033 301.492 C 109.242 301.033,104.681 299.871,100.897 298.910 C 97.114 297.948,88.320 295.704,81.356 293.922 C 65.960 289.984,64.994 289.743,64.568 289.736 C 64.100 289.729,64.169 289.892,62.187 284.085 C 55.998 265.950,51.741 248.369,50.155 234.397 C 50.093 233.848,49.998 233.041,49.945 232.602 C 49.778 231.230,49.267 225.974,49.151 224.427 C 48.604 217.154,48.607 204.970,49.157 198.903 C 49.207 198.355,49.295 197.368,49.354 196.710 C 52.549 160.756,69.556 127.939,97.747 103.327 C 99.030 102.207,100.146 101.184,100.226 101.054 C 100.335 100.878,100.392 100.876,100.449 101.047 C 100.491 101.174,99.903 101.932,99.143 102.732 M122.935 196.909 C 125.655 203.342,131.530 213.939,135.294 219.202 C 150.876 240.987,169.828 255.456,193.021 263.273 C 215.943 270.998,239.992 270.570,260.419 262.075 C 276.683 255.310,289.480 243.981,297.773 229.004 C 298.504 227.683,299.103 226.505,299.103 226.387 C 299.103 226.268,299.252 226.047,299.435 225.897 C 299.734 225.650,299.754 225.677,299.633 226.160 C 299.560 226.455,299.273 227.846,298.996 229.251 C 294.290 253.098,284.086 272.340,268.775 286.241 C 263.550 290.985,256.618 295.374,248.803 298.887 C 239.790 302.938,227.232 305.297,216.251 305.002 C 212.173 304.892,211.394 304.849,208.973 304.596 C 196.736 303.321,184.155 299.396,173.480 293.523 C 170.460 291.863,170.468 291.867,169.890 291.507 C 169.616 291.336,168.809 290.852,168.096 290.431 C 165.986 289.184,159.035 284.246,158.004 283.262 C 157.882 283.146,157.434 282.782,157.009 282.453 C 151.946 278.537,143.178 269.012,138.928 262.812 C 128.678 247.856,123.015 231.679,121.619 213.360 C 121.379 210.214,121.482 196.506,121.754 195.350 C 121.925 194.624,122.025 194.756,122.935 196.909 M329.456 238.992 C 330.218 240.632,331.238 242.806,331.722 243.822 C 332.206 244.838,332.602 245.703,332.602 245.743 C 332.602 245.783,333.365 247.405,334.297 249.346 C 335.229 251.287,335.992 252.904,335.992 252.938 C 335.992 252.972,336.710 254.493,337.587 256.319 C 338.465 258.144,339.182 259.669,339.182 259.706 C 339.182 259.744,339.906 261.283,340.791 263.126 C 343.286 268.324,343.156 267.538,341.869 269.665 C 340.812 271.413,340.254 272.310,338.103 275.717 C 329.801 288.869,318.365 302.252,306.673 312.495 C 293.733 323.831,278.031 332.729,262.413 337.577 C 260.932 338.036,259.452 338.502,259.123 338.611 C 256.980 339.324,250.978 340.738,246.959 341.477 C 240.854 342.600,235.986 343.192,229.611 343.586 C 222.878 344.002,208.484 343.627,203.091 342.895 C 202.762 342.850,201.864 342.752,201.097 342.676 C 200.329 342.600,199.477 342.506,199.202 342.467 C 198.928 342.429,197.627 342.254,196.311 342.080 C 192.058 341.518,184.153 340.147,183.948 339.937 C 183.812 339.798,183.972 339.769,184.447 339.848 C 193.119 341.285,212.688 340.609,224.626 338.461 C 245.394 334.723,263.925 326.132,279.761 312.901 C 285.585 308.035,290.774 302.750,297.158 295.180 C 308.298 281.971,320.574 258.548,326.948 238.340 C 327.371 236.999,327.796 235.926,327.894 235.956 C 327.991 235.986,328.694 237.352,329.456 238.992 " stroke="none"  fill-rule="evenodd"></path><path id="path2" d="M121.752 195.962 C 120.766 200.146,121.669 217.075,123.334 225.640 C 127.764 248.418,141.275 270.510,158.940 283.858 C 163.571 287.356,165.347 288.603,168.295 290.423 C 177.059 295.833,186.991 300.036,196.311 302.280 C 196.859 302.412,197.802 302.646,198.405 302.799 C 212.073 306.275,230.002 305.443,243.769 300.694 C 260.843 294.804,276.788 281.365,285.528 265.498 C 285.767 265.062,286.368 263.988,286.863 263.111 C 290.605 256.474,294.511 246.603,296.888 237.777 C 297.901 234.015,299.305 227.716,299.294 226.978 L 299.286 226.421 298.973 227.019 C 290.932 242.396,277.797 254.750,262.512 261.313 C 236.038 272.680,205.905 271.186,178.166 257.131 C 165.074 250.497,154.547 242.244,143.573 230.010 C 142.965 229.333,138.911 224.307,138.253 223.416 C 138.016 223.094,137.482 222.383,137.068 221.834 C 136.325 220.852,133.140 216.114,131.761 213.941 C 128.989 209.573,124.106 200.223,122.528 196.261 C 122.135 195.276,121.932 195.198,121.752 195.962 " stroke="none" fill="#e2251c" fill-rule="evenodd"></path><path id="path3" d="M206.590 92.597 C 206.639 92.646,208.205 93.058,210.070 93.513 C 211.934 93.967,214.222 94.566,215.155 94.842 C 216.087 95.118,217.657 95.565,218.644 95.835 C 221.168 96.524,229.043 99.204,231.306 100.143 C 232.348 100.576,233.451 101.007,233.758 101.102 C 235.600 101.669,243.715 105.529,247.398 107.589 C 274.930 122.987,290.021 145.173,292.817 174.363 C 294.011 186.821,292.793 200.597,289.219 215.055 C 288.731 217.029,288.297 218.796,288.255 218.981 C 288.133 219.523,290.410 218.244,293.994 215.759 C 310.280 204.467,317.328 181.223,311.230 158.923 C 311.005 158.101,310.753 157.159,310.670 156.830 C 309.705 153.002,304.958 141.815,303.604 140.179 C 303.468 140.015,303.083 139.387,302.749 138.784 C 302.194 137.781,300.149 134.572,299.763 134.098 C 299.674 133.988,299.024 133.091,298.318 132.104 C 290.219 120.775,278.306 110.883,264.654 104.150 C 253.620 98.708,242.902 95.427,230.608 93.727 C 223.905 92.801,205.939 91.955,206.590 92.597 " stroke="none" fill="#83ba2d" fill-rule="evenodd"></path><path id="path4" d="M208.263 50.100 L 207.677 50.748 208.325 50.162 C 208.929 49.616,209.065 49.452,208.911 49.452 C 208.876 49.452,208.585 49.743,208.263 50.100 M206.269 51.894 L 205.683 52.542 206.331 51.957 C 206.935 51.411,207.071 51.246,206.917 51.246 C 206.882 51.246,206.591 51.538,206.269 51.894 M204.314 53.556 C 204.000 53.832,203.782 54.098,203.830 54.146 C 203.878 54.194,204.174 53.965,204.489 53.637 C 205.183 52.913,205.093 52.871,204.314 53.556 M202.480 55.284 L 201.894 55.932 202.542 55.347 C 202.899 55.024,203.190 54.733,203.190 54.698 C 203.190 54.544,203.026 54.680,202.480 55.284 M196.012 61.054 C 195.518 61.504,195.294 61.777,195.513 61.661 C 195.889 61.463,197.185 60.210,196.996 60.228 C 196.948 60.232,196.505 60.604,196.012 61.054 M194.305 62.662 L 193.719 63.310 194.367 62.724 C 194.723 62.402,195.015 62.111,195.015 62.076 C 195.015 61.922,194.850 62.058,194.305 62.662 M257.827 62.901 C 257.827 62.956,258.096 63.140,258.425 63.310 C 258.754 63.480,259.023 63.575,259.023 63.520 C 259.023 63.465,258.754 63.281,258.425 63.111 C 258.096 62.941,257.827 62.846,257.827 62.901 M190.418 66.152 L 189.731 66.899 190.479 66.212 C 191.175 65.573,191.318 65.404,191.166 65.404 C 191.132 65.404,190.796 65.740,190.418 66.152 M193.868 67.146 C 194.499 67.186,195.531 67.186,196.162 67.146 C 196.792 67.107,196.276 67.074,195.015 67.074 C 193.754 67.074,193.238 67.107,193.868 67.146 M202.144 67.343 C 202.500 67.387,203.083 67.387,203.440 67.343 C 203.796 67.298,203.504 67.262,202.792 67.262 C 202.079 67.262,201.787 67.298,202.144 67.343 M206.035 67.541 C 206.338 67.587,206.786 67.586,207.032 67.538 C 207.277 67.491,207.029 67.453,206.481 67.455 C 205.932 67.456,205.732 67.495,206.035 67.541 M208.824 67.735 C 209.015 67.785,209.330 67.785,209.521 67.735 C 209.713 67.685,209.556 67.643,209.172 67.643 C 208.789 67.643,208.632 67.685,208.824 67.735 M211.216 67.934 C 211.408 67.984,211.722 67.984,211.914 67.934 C 212.106 67.884,211.949 67.843,211.565 67.843 C 211.181 67.843,211.024 67.884,211.216 67.934 M282.552 80.459 C 282.924 80.842,283.274 81.157,283.328 81.157 C 283.383 81.157,283.124 80.842,282.752 80.459 C 282.380 80.075,282.030 79.761,281.976 79.761 C 281.921 79.761,282.180 80.075,282.552 80.459 M258.624 80.558 C 259.008 80.768,259.412 80.940,259.521 80.940 C 259.631 80.940,259.407 80.768,259.023 80.558 C 258.639 80.348,258.235 80.176,258.126 80.176 C 258.016 80.176,258.240 80.348,258.624 80.558 M285.145 82.851 C 285.740 83.455,286.273 83.948,286.327 83.948 C 286.382 83.948,285.940 83.455,285.344 82.851 C 284.748 82.248,284.216 81.755,284.161 81.755 C 284.106 81.755,284.549 82.248,285.145 82.851 M290.528 88.235 C 291.124 88.838,291.656 89.332,291.711 89.332 C 291.766 89.332,291.324 88.838,290.728 88.235 C 290.132 87.632,289.600 87.139,289.545 87.139 C 289.490 87.139,289.933 87.632,290.528 88.235 M271.984 87.719 C 272.258 87.943,272.572 88.127,272.682 88.128 C 272.895 88.130,272.535 87.853,271.884 87.517 C 271.619 87.380,271.653 87.448,271.984 87.719 M275.174 89.612 C 275.174 89.667,275.578 89.989,276.072 90.329 C 276.565 90.669,276.969 90.902,276.969 90.847 C 276.969 90.792,276.565 90.469,276.072 90.130 C 275.578 89.790,275.174 89.557,275.174 89.612 M292.522 90.391 C 292.522 90.426,292.814 90.717,293.170 91.039 L 293.819 91.625 293.233 90.977 C 292.687 90.373,292.522 90.237,292.522 90.391 M206.016 92.497 C 205.829 92.616,205.943 92.704,206.397 92.795 C 206.752 92.866,207.088 92.879,207.144 92.823 C 207.199 92.767,207.073 92.702,206.863 92.677 C 206.653 92.652,208.814 92.583,211.665 92.522 L 216.849 92.413 211.565 92.371 C 208.659 92.348,206.162 92.405,206.016 92.497 M279.561 92.595 C 279.561 92.650,279.831 92.886,280.160 93.121 C 280.489 93.355,280.758 93.502,280.758 93.447 C 280.758 93.392,280.489 93.156,280.160 92.921 C 279.831 92.687,279.561 92.540,279.561 92.595 M222.684 92.863 C 222.932 92.911,223.291 92.909,223.482 92.859 C 223.673 92.809,223.470 92.770,223.031 92.772 C 222.592 92.774,222.436 92.815,222.684 92.863 M224.776 93.059 C 224.968 93.109,225.282 93.109,225.474 93.059 C 225.666 93.009,225.508 92.967,225.125 92.967 C 224.741 92.967,224.584 93.009,224.776 93.059 M213.759 94.616 C 214.143 94.764,214.636 94.886,214.855 94.887 C 215.075 94.888,214.850 94.761,214.357 94.606 C 213.230 94.251,212.828 94.258,213.759 94.616 M165.060 97.454 C 165.529 97.496,166.247 97.496,166.655 97.453 C 167.064 97.410,166.680 97.376,165.803 97.376 C 164.925 97.377,164.591 97.412,165.060 97.454 M171.735 97.453 C 172.146 97.496,172.819 97.496,173.230 97.453 C 173.642 97.410,173.305 97.375,172.483 97.375 C 171.660 97.375,171.324 97.410,171.735 97.453 M161.667 97.649 C 161.915 97.696,162.274 97.694,162.465 97.644 C 162.656 97.595,162.453 97.556,162.014 97.558 C 161.575 97.560,161.419 97.601,161.667 97.649 M175.823 97.648 C 176.069 97.696,176.473 97.696,176.720 97.648 C 176.967 97.601,176.765 97.562,176.271 97.562 C 175.778 97.562,175.576 97.601,175.823 97.648 M248.554 97.707 C 248.774 97.801,249.088 97.878,249.252 97.878 C 249.441 97.878,249.404 97.815,249.153 97.707 C 248.933 97.613,248.619 97.536,248.455 97.536 C 248.266 97.536,248.303 97.599,248.554 97.707 M178.116 97.844 C 178.308 97.894,178.622 97.894,178.814 97.844 C 179.005 97.794,178.848 97.753,178.465 97.753 C 178.081 97.753,177.924 97.794,178.116 97.844 M288.121 99.176 C 288.660 99.762,288.767 99.819,288.624 99.447 C 288.570 99.308,288.327 99.072,288.082 98.923 C 287.658 98.664,287.659 98.676,288.121 99.176 M289.113 99.959 C 289.435 100.367,290.927 101.578,290.927 101.431 C 290.927 101.377,290.456 100.944,289.880 100.469 C 289.305 99.994,288.959 99.764,289.113 99.959 M99.801 101.496 C 99.485 101.825,99.306 102.094,99.402 102.094 C 99.498 102.094,99.313 102.385,98.991 102.742 L 98.406 103.390 99.150 102.706 C 99.559 102.329,99.852 101.979,99.799 101.926 C 99.661 101.788,100.119 101.284,100.288 101.389 C 100.367 101.438,100.432 101.347,100.432 101.188 C 100.432 100.816,100.469 100.798,99.801 101.496 M234.672 101.600 C 235.262 101.880,235.782 102.072,235.827 102.026 C 235.872 101.981,235.524 101.789,235.053 101.598 C 233.689 101.047,233.508 101.047,234.672 101.600 M291.127 101.750 C 291.127 101.788,291.418 102.033,291.775 102.294 C 292.176 102.587,292.315 102.635,292.140 102.420 C 291.874 102.093,291.127 101.599,291.127 101.750 M236.889 102.592 C 237.164 102.749,237.478 102.877,237.587 102.877 C 237.697 102.877,237.562 102.749,237.288 102.592 C 237.014 102.435,236.700 102.307,236.590 102.307 C 236.481 102.307,236.615 102.435,236.889 102.592 M137.488 102.998 C 136.989 103.238,136.972 103.266,137.388 103.164 C 137.953 103.026,138.588 102.703,138.285 102.707 C 138.175 102.709,137.817 102.840,137.488 102.998 M303.178 103.356 C 303.485 103.758,303.777 104.088,303.826 104.088 C 303.964 104.088,303.101 102.921,302.846 102.764 C 302.721 102.687,302.871 102.953,303.178 103.356 M263.227 103.367 C 263.430 103.554,266.999 105.278,266.999 105.188 C 266.999 105.078,263.498 103.290,263.281 103.290 C 263.206 103.290,263.181 103.325,263.227 103.367 M293.320 103.552 C 293.320 103.586,293.612 103.878,293.968 104.200 L 294.616 104.786 294.030 104.138 C 293.485 103.534,293.320 103.398,293.320 103.552 M241.077 104.487 C 241.899 104.914,242.662 105.264,242.772 105.264 C 242.881 105.264,242.298 104.914,241.476 104.487 C 240.653 104.059,239.890 103.709,239.781 103.709 C 239.671 103.709,240.254 104.059,241.077 104.487 M243.071 105.379 C 243.071 105.434,243.699 105.795,244.467 106.181 C 245.234 106.568,245.862 106.840,245.862 106.785 C 245.862 106.730,245.234 106.369,244.467 105.982 C 243.699 105.595,243.071 105.324,243.071 105.379 M267.752 105.684 C 268.598 106.200,268.875 106.199,268.096 105.683 C 267.767 105.465,267.408 105.287,267.298 105.286 C 267.188 105.286,267.392 105.465,267.752 105.684 M296.610 106.680 C 297.261 107.338,297.839 107.876,297.894 107.876 C 297.949 107.876,297.461 107.338,296.810 106.680 C 296.158 106.022,295.581 105.484,295.526 105.484 C 295.471 105.484,295.959 106.022,296.610 106.680 M305.882 107.079 C 306.117 107.408,306.353 107.677,306.408 107.677 C 306.463 107.677,306.316 107.408,306.082 107.079 C 305.847 106.750,305.611 106.481,305.556 106.481 C 305.501 106.481,305.648 106.750,305.882 107.079 M92.722 107.976 C 92.237 108.470,91.886 108.873,91.941 108.873 C 91.996 108.873,92.437 108.470,92.921 107.976 C 93.406 107.483,93.757 107.079,93.702 107.079 C 93.647 107.079,93.206 107.483,92.722 107.976 M93.597 108.814 C 93.174 109.330,92.932 109.688,93.059 109.609 C 93.331 109.441,94.593 107.876,94.458 107.876 C 94.407 107.876,94.019 108.298,93.597 108.814 M248.255 108.165 C 248.255 108.220,248.524 108.404,248.853 108.574 C 249.182 108.744,249.452 108.839,249.452 108.784 C 249.452 108.729,249.182 108.545,248.853 108.375 C 248.524 108.205,248.255 108.110,248.255 108.165 M272.881 108.613 C 273.158 108.895,275.972 110.680,275.972 110.574 C 275.972 110.470,274.577 109.520,273.480 108.878 C 273.041 108.621,272.772 108.502,272.881 108.613 M189.581 109.413 C 189.828 109.460,190.232 109.460,190.479 109.413 C 190.725 109.365,190.523 109.326,190.030 109.326 C 189.536 109.326,189.334 109.365,189.581 109.413 M198.754 109.416 C 199.110 109.461,199.693 109.461,200.050 109.416 C 200.406 109.372,200.115 109.336,199.402 109.336 C 198.689 109.336,198.397 109.372,198.754 109.416 M185.994 109.613 C 186.242 109.660,186.601 109.658,186.792 109.609 C 186.983 109.559,186.780 109.520,186.341 109.522 C 185.902 109.524,185.746 109.565,185.994 109.613 M202.545 109.613 C 202.793 109.660,203.152 109.658,203.342 109.609 C 203.533 109.559,203.330 109.520,202.891 109.522 C 202.453 109.524,202.297 109.565,202.545 109.613 M89.823 110.917 L 88.833 111.964 89.880 110.975 C 90.456 110.430,90.927 109.959,90.927 109.928 C 90.927 109.779,90.742 109.944,89.823 110.917 M218.411 111.584 C 218.411 111.738,218.531 111.864,218.677 111.864 C 218.824 111.864,218.943 111.784,218.943 111.686 C 218.943 111.588,218.824 111.462,218.677 111.406 C 218.531 111.350,218.411 111.430,218.411 111.584 M302.792 112.861 C 303.332 113.410,303.819 113.858,303.873 113.858 C 303.928 113.858,303.531 113.410,302.991 112.861 C 302.451 112.313,301.964 111.864,301.909 111.864 C 301.854 111.864,302.252 112.313,302.792 112.861 M278.764 112.514 C 278.764 112.570,279.491 113.171,280.380 113.851 C 281.269 114.530,281.940 114.994,281.870 114.881 C 281.801 114.768,281.185 114.256,280.503 113.742 C 279.821 113.228,279.150 112.719,279.013 112.611 C 278.876 112.502,278.764 112.459,278.764 112.514 M117.348 113.874 C 116.165 114.769,116.006 115.021,117.115 114.243 C 117.953 113.656,118.409 113.248,118.207 113.266 C 118.173 113.269,117.787 113.543,117.348 113.874 M84.945 115.952 C 84.461 116.446,84.109 116.849,84.164 116.849 C 84.219 116.849,84.660 116.446,85.145 115.952 C 85.629 115.459,85.980 115.055,85.926 115.055 C 85.871 115.055,85.430 115.459,84.945 115.952 M260.219 115.900 C 260.219 115.980,261.866 117.358,265.834 120.603 C 266.146 120.857,266.401 121.027,266.401 120.981 C 266.401 120.934,265.436 120.092,264.257 119.110 C 261.302 116.649,260.219 115.788,260.219 115.900 M283.151 115.913 C 283.151 115.968,283.689 116.479,284.347 117.049 C 285.005 117.619,285.543 118.040,285.543 117.986 C 285.543 117.931,285.005 117.420,284.347 116.849 C 283.689 116.279,283.151 115.858,283.151 115.913 M83.437 117.697 L 82.851 118.345 83.500 117.759 C 84.104 117.213,84.239 117.049,84.085 117.049 C 84.051 117.049,83.759 117.340,83.437 117.697 M86.341 118.245 C 86.107 118.574,85.960 118.843,86.015 118.843 C 86.070 118.843,86.306 118.574,86.540 118.245 C 86.775 117.916,86.921 117.647,86.867 117.647 C 86.812 117.647,86.575 117.916,86.341 118.245 M153.141 118.146 C 152.866 118.302,152.732 118.431,152.841 118.431 C 152.951 118.431,153.265 118.302,153.539 118.146 C 153.814 117.989,153.948 117.861,153.838 117.861 C 153.729 117.861,153.415 117.989,153.141 118.146 M286.161 118.694 C 286.209 118.721,286.650 119.103,287.142 119.541 L 288.036 120.339 287.248 119.492 C 286.814 119.025,286.373 118.644,286.267 118.644 C 286.162 118.644,286.114 118.667,286.161 118.694 M110.556 119.492 L 109.970 120.140 110.618 119.554 C 110.975 119.232,111.266 118.940,111.266 118.906 C 111.266 118.752,111.102 118.887,110.556 119.492 M308.685 119.333 C 309.380 120.249,310.269 121.240,310.263 121.094 C 310.259 121.008,309.833 120.484,309.316 119.931 C 308.798 119.377,308.514 119.108,308.685 119.333 M288.442 120.721 C 288.616 120.986,288.895 121.255,289.062 121.320 C 289.230 121.384,289.112 121.167,288.802 120.838 C 288.118 120.113,288.024 120.083,288.442 120.721 M267.198 121.934 C 267.570 122.318,267.920 122.632,267.975 122.632 C 268.029 122.632,267.770 122.318,267.398 121.934 C 267.026 121.550,266.677 121.236,266.622 121.236 C 266.567 121.236,266.826 121.550,267.198 121.934 M107.666 122.383 L 106.979 123.131 107.727 122.443 C 108.423 121.804,108.566 121.635,108.414 121.635 C 108.381 121.635,108.044 121.972,107.666 122.383 M145.214 122.456 C 144.535 122.891,144.315 123.183,144.915 122.853 C 145.373 122.602,146.089 122.047,145.962 122.044 C 145.907 122.042,145.571 122.227,145.214 122.456 M143.218 123.734 C 142.643 124.121,142.173 124.481,142.173 124.534 C 142.173 124.587,142.667 124.303,143.270 123.902 C 144.228 123.266,144.510 123.031,144.314 123.031 C 144.286 123.031,143.792 123.347,143.218 123.734 M269.492 124.028 C 270.032 124.576,270.518 125.025,270.573 125.025 C 270.628 125.025,270.231 124.576,269.691 124.028 C 269.151 123.480,268.664 123.031,268.609 123.031 C 268.554 123.031,268.951 123.480,269.492 124.028 M290.927 123.155 C 290.927 123.259,291.398 123.790,291.974 124.335 L 293.021 125.324 292.024 124.232 C 291.476 123.631,291.004 123.100,290.977 123.052 C 290.950 123.004,290.927 123.050,290.927 123.155 M105.882 124.128 C 105.398 124.621,105.047 125.025,105.101 125.025 C 105.156 125.025,105.597 124.621,106.082 124.128 C 106.566 123.634,106.918 123.230,106.863 123.230 C 106.808 123.230,106.367 123.634,105.882 124.128 M293.636 126.260 C 294.084 126.732,295.016 127.814,295.707 128.664 C 296.398 129.514,297.002 130.209,297.050 130.209 C 297.274 130.209,293.461 125.661,293.121 125.523 C 292.956 125.456,293.188 125.788,293.636 126.260 M272.687 127.468 C 273.553 128.427,274.297 129.212,274.339 129.212 C 274.469 129.212,272.462 126.957,271.766 126.321 C 271.406 125.992,271.820 126.508,272.687 127.468 M318.544 127.218 C 318.715 127.547,318.899 127.817,318.953 127.817 C 319.008 127.817,318.914 127.547,318.744 127.218 C 318.574 126.889,318.390 126.620,318.335 126.620 C 318.280 126.620,318.374 126.889,318.544 127.218 M136.566 128.630 L 135.693 129.442 136.640 128.687 C 137.161 128.271,137.587 127.906,137.587 127.874 C 137.587 127.720,137.370 127.881,136.566 128.630 M319.342 128.614 C 319.512 128.943,319.696 129.212,319.751 129.212 C 319.806 129.212,319.712 128.943,319.541 128.614 C 319.371 128.285,319.187 128.016,319.132 128.016 C 319.077 128.016,319.172 128.285,319.342 128.614 M133.400 131.306 C 132.915 131.800,132.564 132.203,132.619 132.203 C 132.674 132.203,133.115 131.800,133.599 131.306 C 134.084 130.813,134.435 130.409,134.380 130.409 C 134.325 130.409,133.884 130.813,133.400 131.306 M297.715 131.288 C 298.090 131.809,298.482 132.289,298.588 132.354 C 298.693 132.419,298.472 132.046,298.098 131.524 C 297.723 131.002,297.330 130.522,297.225 130.457 C 297.120 130.392,297.340 130.766,297.715 131.288 M100.100 131.206 C 99.865 131.535,99.719 131.805,99.773 131.805 C 99.828 131.805,100.065 131.535,100.299 131.206 C 100.533 130.877,100.680 130.608,100.625 130.608 C 100.571 130.608,100.334 130.877,100.100 131.206 M277.147 132.901 C 277.786 133.836,278.429 134.572,278.193 134.098 C 278.083 133.878,277.711 133.385,277.366 133.001 C 276.824 132.398,276.794 132.385,277.147 132.901 M299.151 133.298 C 299.398 133.680,299.673 133.994,299.761 133.996 C 299.849 133.997,299.681 133.684,299.388 133.300 C 298.704 132.403,298.570 132.401,299.151 133.298 M278.963 135.494 C 279.303 135.987,279.625 136.391,279.680 136.391 C 279.735 136.391,279.502 135.987,279.163 135.494 C 278.823 135.000,278.500 134.596,278.445 134.596 C 278.391 134.596,278.624 135.000,278.963 135.494 M300.591 135.344 C 300.898 135.810,301.188 136.191,301.234 136.191 C 301.378 136.191,300.615 134.978,300.315 134.730 C 300.159 134.602,300.283 134.878,300.591 135.344 M75.606 136.898 C 75.272 137.631,75.335 137.788,75.697 137.121 C 75.865 136.810,75.966 136.518,75.920 136.472 C 75.875 136.426,75.733 136.618,75.606 136.898 M301.477 136.754 C 301.598 136.981,301.795 137.227,301.915 137.301 C 302.072 137.398,302.071 137.319,301.913 137.024 C 301.792 136.798,301.595 136.552,301.475 136.478 C 301.318 136.381,301.319 136.459,301.477 136.754 M127.505 137.238 L 126.919 137.886 127.567 137.301 C 127.924 136.979,128.215 136.687,128.215 136.653 C 128.215 136.499,128.051 136.634,127.505 137.238 M279.882 136.790 C 280.184 137.372,281.369 139.182,281.448 139.182 C 281.578 139.182,280.594 137.528,280.143 136.989 C 279.914 136.715,279.796 136.625,279.882 136.790 M303.190 139.581 C 303.361 139.910,303.545 140.179,303.599 140.179 C 303.654 140.179,303.560 139.910,303.390 139.581 C 303.220 139.252,303.036 138.983,302.981 138.983 C 302.926 138.983,303.020 139.252,303.190 139.581 M124.826 140.279 C 124.568 140.553,124.440 140.775,124.542 140.771 C 124.712 140.766,125.534 139.781,125.368 139.781 C 125.327 139.781,125.083 140.005,124.826 140.279 M283.887 143.666 C 284.070 144.049,284.254 144.326,284.298 144.283 C 284.389 144.192,283.784 142.971,283.647 142.971 C 283.597 142.971,283.705 143.284,283.887 143.666 M284.685 145.262 C 284.867 145.644,285.052 145.922,285.095 145.878 C 285.187 145.787,284.581 144.566,284.445 144.566 C 284.395 144.566,284.503 144.879,284.685 145.262 M63.101 147.576 C 62.926 147.915,62.818 148.228,62.861 148.271 C 62.904 148.315,63.089 148.037,63.271 147.655 C 63.681 146.795,63.539 146.729,63.101 147.576 M286.555 149.252 C 286.555 149.362,286.683 149.676,286.839 149.950 C 286.996 150.224,287.124 150.359,287.124 150.249 C 287.124 150.140,286.996 149.826,286.839 149.551 C 286.683 149.277,286.555 149.143,286.555 149.252 M288.063 153.141 C 288.130 153.415,288.307 153.908,288.457 154.237 C 288.676 154.718,288.706 154.737,288.607 154.337 C 288.540 154.063,288.363 153.569,288.213 153.240 C 287.994 152.760,287.964 152.740,288.063 153.141 M60.252 153.648 C 59.918 154.381,59.981 154.537,60.343 153.871 C 60.511 153.559,60.612 153.267,60.566 153.222 C 60.521 153.176,60.379 153.368,60.252 153.648 M86.794 167.697 C 86.794 168.190,86.833 168.392,86.881 168.146 C 86.928 167.899,86.928 167.495,86.881 167.248 C 86.833 167.001,86.794 167.203,86.794 167.697 M86.620 173.081 C 86.620 174.671,86.651 175.322,86.688 174.526 C 86.726 173.731,86.726 172.430,86.688 171.635 C 86.651 170.840,86.620 171.491,86.620 173.081 M292.972 177.368 C 292.974 177.807,293.015 177.963,293.062 177.715 C 293.110 177.466,293.108 177.108,293.058 176.917 C 293.008 176.726,292.969 176.929,292.972 177.368 M86.794 178.465 C 86.794 178.958,86.833 179.160,86.881 178.913 C 86.928 178.667,86.928 178.263,86.881 178.016 C 86.833 177.769,86.794 177.971,86.794 178.465 M313.317 178.764 C 313.319 179.312,313.357 179.513,313.403 179.210 C 313.449 178.907,313.448 178.458,313.401 178.213 C 313.353 177.967,313.316 178.215,313.317 178.764 M65.663 179.661 C 65.663 180.264,65.700 180.511,65.746 180.209 C 65.792 179.908,65.792 179.414,65.746 179.113 C 65.700 178.811,65.663 179.058,65.663 179.661 M293.203 183.848 C 293.203 185.877,293.233 186.707,293.269 185.693 C 293.305 184.678,293.305 183.018,293.269 182.004 C 293.233 180.990,293.203 181.820,293.203 183.848 M65.670 186.441 C 65.670 187.263,65.705 187.600,65.748 187.188 C 65.791 186.777,65.791 186.104,65.748 185.693 C 65.705 185.282,65.670 185.618,65.670 186.441 M105.729 188.833 C 105.729 189.217,105.770 189.374,105.820 189.182 C 105.871 188.991,105.871 188.676,105.820 188.485 C 105.770 188.293,105.729 188.450,105.729 188.833 M292.976 190.628 C 292.976 191.122,293.014 191.324,293.062 191.077 C 293.109 190.830,293.109 190.426,293.062 190.179 C 293.014 189.933,292.976 190.135,292.976 190.628 M311.380 190.343 C 311.307 190.635,311.285 190.913,311.332 190.960 C 311.379 191.007,311.478 190.806,311.551 190.514 C 311.624 190.222,311.646 189.944,311.599 189.897 C 311.552 189.850,311.453 190.051,311.380 190.343 M105.538 191.426 C 105.538 191.919,105.577 192.121,105.624 191.874 C 105.672 191.628,105.672 191.224,105.624 190.977 C 105.577 190.730,105.538 190.932,105.538 191.426 M310.392 193.542 C 310.215 194.061,310.105 194.519,310.148 194.561 C 310.190 194.603,310.369 194.214,310.545 193.696 C 310.722 193.178,310.832 192.719,310.790 192.677 C 310.747 192.635,310.568 193.024,310.392 193.542 M292.768 193.420 C 292.768 193.804,292.809 193.961,292.859 193.769 C 292.909 193.577,292.909 193.263,292.859 193.071 C 292.809 192.879,292.768 193.036,292.768 193.420 M105.370 198.903 C 105.370 201.535,105.399 202.585,105.433 201.235 C 105.468 199.885,105.468 197.732,105.433 196.449 C 105.398 195.167,105.370 196.271,105.370 198.903 M309.504 195.921 C 309.170 196.654,309.234 196.810,309.595 196.144 C 309.764 195.833,309.864 195.541,309.819 195.495 C 309.773 195.449,309.631 195.641,309.504 195.921 M306.607 201.844 L 306.248 202.493 306.659 201.994 C 307.023 201.552,307.185 201.196,307.022 201.196 C 306.991 201.196,306.804 201.488,306.607 201.844 M305.958 202.841 C 305.272 204.006,305.227 204.105,305.577 203.689 C 305.982 203.206,306.331 202.592,306.200 202.592 C 306.148 202.592,306.039 202.704,305.958 202.841 M48.719 206.481 C 48.720 207.248,48.756 207.538,48.800 207.124 C 48.843 206.710,48.842 206.082,48.798 205.728 C 48.754 205.374,48.719 205.713,48.719 206.481 M105.541 206.281 C 105.542 206.830,105.581 207.030,105.627 206.727 C 105.672 206.424,105.671 205.975,105.624 205.730 C 105.577 205.485,105.539 205.733,105.541 206.281 M304.060 205.733 C 303.427 206.496,303.200 206.851,303.430 206.712 C 303.685 206.559,304.571 205.384,304.431 205.384 C 304.386 205.384,304.219 205.541,304.060 205.733 M302.168 208.118 C 301.634 208.744,301.300 209.192,301.428 209.114 C 301.706 208.943,303.367 206.979,303.233 206.979 C 303.181 206.979,302.702 207.491,302.168 208.118 M105.729 208.973 C 105.729 209.357,105.770 209.514,105.820 209.322 C 105.871 209.130,105.871 208.816,105.820 208.624 C 105.770 208.432,105.729 208.589,105.729 208.973 M300.586 210.020 L 300.000 210.668 300.648 210.082 C 301.252 209.536,301.388 209.372,301.234 209.372 C 301.199 209.372,300.908 209.664,300.586 210.020 M299.014 211.530 L 298.426 212.263 299.163 211.576 C 299.925 210.866,300.005 210.758,299.751 210.782 C 299.668 210.790,299.337 211.127,299.014 211.530 M96.510 212.240 C 96.510 212.454,97.104 213.559,97.219 213.559 C 97.273 213.559,97.170 213.268,96.989 212.911 C 96.619 212.183,96.510 212.032,96.510 212.240 M296.996 213.410 L 296.411 214.058 297.059 213.472 C 297.663 212.926,297.799 212.762,297.644 212.762 C 297.610 212.762,297.319 213.053,296.996 213.410 M295.414 214.686 C 294.813 215.222,294.768 215.297,295.232 214.987 C 295.783 214.618,296.476 213.946,296.286 213.966 C 296.245 213.970,295.852 214.294,295.414 214.686 M48.722 216.251 C 48.723 217.129,48.758 217.463,48.800 216.994 C 48.842 216.525,48.842 215.807,48.799 215.399 C 48.756 214.990,48.722 215.374,48.722 216.251 M293.580 216.066 L 293.021 216.579 293.669 216.129 C 294.025 215.881,294.317 215.650,294.317 215.616 C 294.317 215.458,294.096 215.593,293.580 216.066 M288.099 218.882 C 287.933 219.489,288.093 219.574,288.759 219.229 C 289.458 218.868,289.513 218.685,288.846 218.938 C 288.457 219.086,288.346 219.056,288.290 218.784 C 288.233 218.513,288.195 218.533,288.099 218.882 M299.298 226.027 C 299.159 226.194,299.104 226.388,299.174 226.459 C 299.244 226.529,299.302 226.477,299.302 226.343 C 299.302 226.208,299.392 226.154,299.501 226.221 C 299.611 226.289,299.701 226.205,299.701 226.034 C 299.701 225.644,299.617 225.643,299.298 226.027 M145.156 231.755 C 145.982 232.635,146.162 232.793,146.162 232.644 C 146.162 232.612,145.735 232.185,145.214 231.697 L 144.267 230.808 145.156 231.755 M149.252 236.092 C 150.785 237.627,152.083 238.883,152.138 238.883 C 152.193 238.883,150.984 237.627,149.452 236.092 C 147.919 234.556,146.620 233.300,146.566 233.300 C 146.511 233.300,147.720 234.556,149.252 236.092 M327.620 236.241 C 327.623 236.505,327.664 236.526,327.790 236.328 C 327.911 236.137,328.027 236.234,328.212 236.683 C 328.353 237.023,328.508 237.262,328.556 237.213 C 328.694 237.075,328.028 235.892,327.811 235.892 C 327.705 235.892,327.619 236.049,327.620 236.241 M153.582 240.180 C 154.099 240.717,154.553 241.117,154.590 241.067 C 154.627 241.018,154.204 240.578,153.650 240.090 L 152.642 239.202 153.582 240.180 M329.625 239.581 C 329.625 239.691,329.754 240.005,329.910 240.279 C 330.067 240.553,330.195 240.688,330.195 240.578 C 330.195 240.469,330.067 240.155,329.910 239.880 C 329.754 239.606,329.625 239.472,329.625 239.581 M154.994 241.408 C 155.165 241.686,157.129 243.347,157.129 243.213 C 157.129 243.162,156.616 242.682,155.990 242.148 C 155.364 241.614,154.916 241.281,154.994 241.408 M158.524 244.333 C 158.524 244.388,158.883 244.717,159.322 245.065 C 159.761 245.412,160.120 245.652,160.120 245.597 C 160.120 245.542,159.761 245.213,159.322 244.865 C 158.883 244.518,158.524 244.279,158.524 244.333 M284.990 245.894 C 284.192 246.675,283.569 247.344,283.605 247.380 C 283.641 247.416,284.337 246.776,285.150 245.956 C 285.964 245.137,286.587 244.468,286.535 244.470 C 286.483 244.472,285.788 245.113,284.990 245.894 M131.819 250.748 C 131.819 250.857,131.947 251.171,132.104 251.446 C 132.260 251.720,132.389 251.854,132.389 251.745 C 132.389 251.635,132.260 251.321,132.104 251.047 C 131.947 250.773,131.819 250.638,131.819 250.748 M277.268 252.560 L 276.670 253.074 277.318 252.645 C 277.674 252.409,277.966 252.177,277.966 252.130 C 277.966 251.981,277.882 252.033,277.268 252.560 M84.945 255.434 C 85.277 256.092,85.594 256.630,85.649 256.630 C 85.704 256.630,85.477 256.092,85.145 255.434 C 84.812 254.776,84.496 254.237,84.441 254.237 C 84.386 254.237,84.613 254.776,84.945 255.434 M289.763 257.337 C 289.429 258.070,289.493 258.226,289.854 257.560 C 290.023 257.248,290.124 256.956,290.078 256.911 C 290.032 256.865,289.891 257.057,289.763 257.337 M319.577 257.537 C 319.109 258.519,319.175 258.686,319.664 257.758 C 319.887 257.336,320.033 256.956,319.990 256.913 C 319.947 256.870,319.761 257.150,319.577 257.537 M233.452 268.536 C 233.700 268.584,234.059 268.582,234.250 268.532 C 234.440 268.482,234.237 268.443,233.799 268.445 C 233.360 268.447,233.204 268.488,233.452 268.536 M220.588 268.737 C 220.890 268.783,221.383 268.783,221.685 268.737 C 221.987 268.691,221.740 268.654,221.137 268.654 C 220.533 268.654,220.287 268.691,220.588 268.737 M230.160 268.737 C 230.461 268.783,230.955 268.783,231.256 268.737 C 231.558 268.691,231.311 268.654,230.708 268.654 C 230.105 268.654,229.858 268.691,230.160 268.737 M145.165 270.887 C 145.537 271.271,145.886 271.585,145.941 271.585 C 145.995 271.585,145.736 271.271,145.364 270.887 C 144.992 270.503,144.643 270.189,144.588 270.189 C 144.533 270.189,144.792 270.503,145.165 270.887 M281.755 271.386 C 281.520 271.715,281.374 271.984,281.428 271.984 C 281.483 271.984,281.720 271.715,281.954 271.386 C 282.188 271.057,282.335 270.788,282.280 270.788 C 282.226 270.788,281.989 271.057,281.755 271.386 M147.159 273.081 C 147.531 273.465,147.880 273.779,147.935 273.779 C 147.989 273.779,147.730 273.465,147.358 273.081 C 146.986 272.697,146.637 272.383,146.582 272.383 C 146.527 272.383,146.786 272.697,147.159 273.081 M335.992 278.664 C 335.652 279.158,335.420 279.561,335.474 279.561 C 335.529 279.561,335.852 279.158,336.191 278.664 C 336.531 278.170,336.764 277.767,336.709 277.767 C 336.654 277.767,336.332 278.170,335.992 278.664 M155.035 280.740 C 155.451 281.221,156.929 282.444,156.929 282.308 C 156.929 282.265,156.413 281.791,155.783 281.255 C 155.152 280.718,154.816 280.487,155.035 280.740 M272.279 282.802 L 270.289 284.845 272.333 282.855 C 273.457 281.761,274.377 280.841,274.377 280.811 C 274.377 280.667,274.128 280.903,272.279 282.802 M306.955 281.406 C 306.269 282.570,306.224 282.670,306.574 282.253 C 306.979 281.771,307.328 281.157,307.197 281.157 C 307.145 281.157,307.036 281.269,306.955 281.406 M158.594 283.700 C 158.672 283.826,159.019 284.131,159.364 284.377 C 159.710 284.623,159.928 284.721,159.851 284.595 C 159.773 284.469,159.426 284.164,159.081 283.918 C 158.735 283.672,158.516 283.574,158.594 283.700 M332.091 284.281 C 331.784 284.684,331.635 284.950,331.759 284.874 C 332.014 284.716,332.878 283.549,332.739 283.549 C 332.690 283.549,332.398 283.879,332.091 284.281 M63.822 288.845 C 63.795 289.273,64.336 289.774,64.719 289.676 C 65.075 289.585,65.073 289.576,64.687 289.555 C 64.457 289.542,64.171 289.330,64.052 289.083 C 63.933 288.836,63.829 288.729,63.822 288.845 M263.111 290.646 L 262.512 291.160 263.161 290.731 C 263.517 290.495,263.809 290.263,263.809 290.216 C 263.809 290.066,263.724 290.118,263.111 290.646 M168.096 290.418 C 168.096 290.473,168.365 290.657,168.694 290.828 C 169.023 290.998,169.292 291.092,169.292 291.037 C 169.292 290.982,169.023 290.798,168.694 290.628 C 168.365 290.458,168.096 290.364,168.096 290.418 M296.989 295.364 C 296.115 296.371,295.856 296.710,295.957 296.710 C 296.016 296.710,296.394 296.306,296.799 295.813 C 297.548 294.899,297.696 294.548,296.989 295.364 M294.915 297.807 C 294.658 298.081,294.530 298.302,294.631 298.299 C 294.802 298.293,295.623 297.308,295.458 297.308 C 295.417 297.308,295.173 297.532,294.915 297.807 M293.708 299.252 L 293.021 300.000 293.769 299.313 C 294.180 298.935,294.516 298.598,294.516 298.565 C 294.516 298.413,294.348 298.556,293.708 299.252 M320.127 299.153 L 319.541 299.801 320.189 299.215 C 320.794 298.669,320.929 298.504,320.775 298.504 C 320.741 298.504,320.449 298.796,320.127 299.153 M292.410 300.748 L 291.825 301.396 292.473 300.810 C 293.077 300.264,293.212 300.100,293.058 300.100 C 293.024 300.100,292.732 300.391,292.410 300.748 M317.640 301.844 L 316.550 302.991 317.697 301.901 C 318.762 300.889,318.935 300.698,318.787 300.698 C 318.756 300.698,318.240 301.214,317.640 301.844 M287.836 305.484 C 286.194 307.129,284.895 308.475,284.950 308.475 C 285.005 308.475,286.394 307.129,288.036 305.484 C 289.678 303.838,290.977 302.493,290.922 302.493 C 290.867 302.493,289.479 303.838,287.836 305.484 M214.506 305.031 C 214.973 305.073,215.735 305.073,216.201 305.031 C 216.667 304.989,216.286 304.955,215.354 304.955 C 214.422 304.955,214.040 304.989,214.506 305.031 M219.492 305.031 C 219.958 305.073,220.720 305.073,221.186 305.031 C 221.653 304.989,221.271 304.955,220.339 304.955 C 219.407 304.955,219.025 304.989,219.492 305.031 M311.067 308.375 C 310.582 308.868,310.231 309.272,310.286 309.272 C 310.341 309.272,310.782 308.868,311.266 308.375 C 311.751 307.881,312.102 307.478,312.047 307.478 C 311.992 307.478,311.551 307.881,311.067 308.375 M283.038 310.120 L 282.453 310.768 283.101 310.182 C 283.705 309.636,283.840 309.472,283.686 309.472 C 283.652 309.472,283.360 309.763,283.038 310.120 M272.483 318.562 L 271.884 319.076 272.532 318.647 C 272.889 318.411,273.180 318.179,273.180 318.132 C 273.180 317.983,273.096 318.035,272.483 318.562 M271.087 319.559 L 270.489 320.073 271.137 319.644 C 271.493 319.408,271.785 319.176,271.785 319.129 C 271.785 318.980,271.700 319.032,271.087 319.559 M290.379 324.450 C 289.699 324.885,289.479 325.177,290.080 324.847 C 290.537 324.596,291.254 324.041,291.127 324.038 C 291.072 324.036,290.735 324.221,290.379 324.450 M279.910 330.323 C 279.137 330.743,279.225 330.888,280.010 330.488 C 280.762 330.106,280.895 330.007,280.641 330.018 C 280.541 330.022,280.212 330.160,279.910 330.323 M278.365 331.107 C 278.091 331.263,277.956 331.392,278.066 331.392 C 278.175 331.392,278.490 331.263,278.764 331.107 C 279.038 330.950,279.172 330.822,279.063 330.822 C 278.953 330.822,278.639 330.950,278.365 331.107 M183.948 339.980 C 184.016 340.090,184.201 340.179,184.359 340.179 C 184.517 340.179,184.646 340.090,184.646 339.980 C 184.646 339.870,184.461 339.781,184.235 339.781 C 184.010 339.781,183.880 339.870,183.948 339.980 M215.005 339.918 C 215.197 339.968,215.511 339.968,215.703 339.918 C 215.895 339.868,215.738 339.827,215.354 339.827 C 214.970 339.827,214.813 339.868,215.005 339.918 M185.244 340.190 C 185.030 340.336,185.171 340.356,185.743 340.260 C 186.732 340.094,186.891 339.979,186.125 339.983 C 185.805 339.985,185.409 340.078,185.244 340.190 M213.011 340.118 C 213.203 340.168,213.517 340.168,213.709 340.118 C 213.901 340.067,213.744 340.026,213.360 340.026 C 212.976 340.026,212.819 340.067,213.011 340.118 M188.188 340.320 C 188.436 340.368,188.795 340.366,188.985 340.316 C 189.176 340.267,188.973 340.228,188.534 340.230 C 188.096 340.232,187.940 340.273,188.188 340.320 M210.720 340.320 C 210.968 340.368,211.327 340.366,211.518 340.316 C 211.708 340.267,211.505 340.228,211.067 340.230 C 210.628 340.232,210.472 340.273,210.720 340.320 M191.276 340.522 C 191.578 340.567,192.071 340.567,192.373 340.522 C 192.674 340.476,192.428 340.439,191.825 340.439 C 191.221 340.439,190.975 340.476,191.276 340.522 M207.428 340.522 C 207.729 340.567,208.223 340.567,208.524 340.522 C 208.826 340.476,208.579 340.439,207.976 340.439 C 207.373 340.439,207.126 340.476,207.428 340.522 M197.557 340.727 C 198.791 340.762,200.810 340.762,202.044 340.727 C 203.278 340.692,202.268 340.664,199.801 340.664 C 197.333 340.664,196.324 340.692,197.557 340.727 M207.131 343.312 C 207.379 343.359,207.738 343.357,207.929 343.307 C 208.119 343.258,207.916 343.219,207.478 343.221 C 207.039 343.223,206.883 343.264,207.131 343.312 M233.151 343.308 C 233.342 343.358,233.657 343.358,233.848 343.308 C 234.040 343.258,233.883 343.217,233.500 343.217 C 233.116 343.217,232.959 343.258,233.151 343.308 M209.821 343.513 C 210.122 343.558,210.616 343.558,210.917 343.513 C 211.219 343.467,210.972 343.430,210.369 343.430 C 209.766 343.430,209.519 343.467,209.821 343.513 M230.461 343.511 C 230.709 343.559,231.068 343.557,231.259 343.507 C 231.449 343.457,231.246 343.418,230.808 343.420 C 230.369 343.422,230.213 343.463,230.461 343.511 M213.704 343.713 C 214.058 343.757,214.687 343.758,215.100 343.715 C 215.514 343.672,215.224 343.636,214.457 343.635 C 213.689 343.634,213.350 343.669,213.704 343.713 M226.067 343.713 C 226.421 343.757,227.049 343.758,227.463 343.715 C 227.877 343.672,227.587 343.636,226.820 343.635 C 226.052 343.634,225.713 343.669,226.067 343.713 " stroke="none" fill="#9bacb8" fill-rule="evenodd"></path></g></svg>